<svg width="57" height="63" viewBox="0 0 57 63" fill="none" xmlns="http://www.w3.org/2000/svg">
<path d="M26.2554 6.10352e-05V7.62435L21.0323 2.83892L18.0057 6.1612L26.2541 13.7199V22.4075L21.7636 25.0046L14.2555 20.6628L11.8473 9.72006L7.46195 10.6908L8.98872 17.6118L2.39793 13.8022L0.15396 17.6966L6.7409 21.5062L0 23.6456L1.35485 27.9399L12.0102 24.5559L19.5183 28.9016V34.0959L12.0102 38.4416L1.35485 35.0576L0 39.3532L6.7409 41.4926L0.15396 45.3022L2.39922 49.1966L8.99001 45.3871L7.46323 52.3081L11.8485 53.2788L14.2567 42.3361L21.7649 37.9942L26.2554 40.5913V49.2789L18.007 56.8376L21.0336 60.1599L26.2567 55.3745V62.9988H30.7472V55.3745L35.9703 60.1599L38.9969 56.8376L30.7485 49.2789V40.5913L35.239 37.9942L42.7471 42.3361L45.1553 53.2788L49.5406 52.3081L48.0151 45.3871L54.6059 49.1966L56.8512 45.3022L50.2642 41.4926L57.0039 39.3532L55.649 35.0602L44.9924 38.4442L37.4842 34.0985V28.9042L44.9924 24.5585L55.649 27.9425L57.0039 23.6482L50.2642 21.5075L56.8512 17.6979L54.6059 13.8048L48.0151 17.6143L49.5406 10.6933L45.1553 9.72263L42.7471 20.6653L35.239 25.0072L30.7485 22.4101V13.7225L38.9969 6.16378L35.9703 2.84149L30.7472 7.62692V6.10352e-05H26.2567H26.2554ZM28.5006 26.3058L32.9912 28.9029V34.0972L28.5006 36.6943L24.0101 34.0972V28.9029L28.5006 26.3058Z" fill="white"/>
</svg>
