<svg width="71" height="62" viewBox="0 0 71 62" fill="none" xmlns="http://www.w3.org/2000/svg">
<path d="M70.7491 32.9418L54.2335 8.46365C53.9658 8.06563 53.5164 7.82682 53.0389 7.82682H49.8186V1.45994C49.8186 0.65395 49.1706 6.10352e-05 48.3719 6.10352e-05H41.9369C41.1368 6.10352e-05 40.4902 0.65395 40.4902 1.45994V7.82682H17.3043H17.3015C17.1945 7.82682 17.0874 7.84246 16.9818 7.86662C16.9494 7.87373 16.9184 7.8851 16.886 7.89648C16.8155 7.9178 16.7479 7.94338 16.6789 7.97608C16.6423 7.99314 16.6084 8.01304 16.5718 8.03436C16.5436 8.05142 16.5155 8.06137 16.4887 8.07985C16.4563 8.10117 16.4309 8.1296 16.4 8.15377C16.3704 8.17793 16.3394 8.2021 16.3112 8.23053C16.2478 8.29165 16.1929 8.35562 16.1436 8.42385C16.1309 8.43949 16.1182 8.45086 16.1069 8.4665L0.250594 31.9638C-0.0508682 32.4116 -0.0832683 32.9902 0.167481 33.4692C0.41823 33.9482 0.909867 34.2468 1.44658 34.2468H9.20712V60.5402C9.20712 61.3462 9.85513 62.0001 10.6539 62.0001H62.673C63.4732 62.0001 64.1198 61.3462 64.1198 60.5402V35.2205L69.5531 35.2233C70.0898 35.2233 70.5815 34.9234 70.8322 34.4458C71.083 33.9681 71.0506 33.3896 70.7505 32.9432L70.7491 32.9418ZM9.88894 31.327H4.18228L17.3043 11.8795L20.157 16.1085L9.89034 31.327H9.88894ZM26.7835 59.0803H21.8122V42.8283C23.2364 41.7366 25.3621 41.7352 26.7835 42.8283V59.0803ZM40.4888 59.0803H29.677V42.1702C29.677 41.7835 29.5248 41.4111 29.253 41.1368C27.9302 39.802 26.1693 39.0656 24.2986 39.0656C22.4278 39.0656 20.6655 39.802 19.3427 41.1368C19.0709 41.4111 18.9187 41.7821 18.9187 42.1702V59.0803H12.1034V33.2375L21.9094 18.7041L32.6183 34.5751C32.8874 34.976 33.3368 35.2134 33.8143 35.2134H40.4916V59.0803H40.4888ZM61.2263 59.0803H43.3836V35.2148L61.2277 35.2205V59.0803H61.2263ZM41.9566 32.295C41.9496 32.295 41.9425 32.2936 41.9355 32.2936C41.9285 32.2936 41.9214 32.295 41.9144 32.295H34.575L23.1237 15.3224C23.1223 15.3181 23.1195 15.3153 23.1181 15.3124L20.0386 10.748H40.4888V18.5989C40.4888 19.4049 41.1354 20.0588 41.9355 20.0588C42.7356 20.0588 43.3822 19.4049 43.3822 18.5989V2.92124H46.9251V18.5989C46.9251 19.4049 47.5717 20.0588 48.3719 20.0588C49.172 20.0588 49.8186 19.4049 49.8186 18.5989V10.748H52.2726L66.8174 32.3036L41.958 32.2965L41.9566 32.295Z" fill="white"/>
</svg>
