<svg width="66" height="66" viewBox="0 0 66 66" fill="none" xmlns="http://www.w3.org/2000/svg">
<g clip-path="url(#clip0_5_113)">
<path d="M32.0279 51.1231L31.6113 64.594C31.6113 66.4688 34.3887 66.4688 34.3887 64.594L33.9027 48.8317L32.0279 51.1231Z" fill="white"/>
<path d="M23.2094 53.7618L19.6681 61.6082C18.9043 63.3441 21.5429 64.3857 22.2372 62.6497L25.0147 55.2894C24.3898 55.0116 23.8343 54.595 23.4177 54.109C23.2788 54.0395 23.2094 53.9007 23.2094 53.7618Z" fill="white"/>
<path d="M25.5702 39.3883L9.66912 54.3867C8.34981 55.706 10.2941 57.6503 11.6134 56.331L24.8064 42.3047L25.5702 39.3883Z" fill="white"/>
<path d="M19.3903 37.7218L3.2809 43.8323C1.54498 44.5266 2.65597 47.0958 4.32246 46.4014L20.8485 38.9717C20.293 38.6245 19.8069 38.2079 19.3903 37.7218Z" fill="white"/>
<path d="M19.4598 32.8612L20.0153 32.2363L1.4061 31.6113C-0.468701 31.6113 -0.468701 34.3888 1.4061 34.3888L18.8348 33.9028C18.9737 33.4861 19.182 33.1389 19.4598 32.8612Z" fill="white"/>
<path d="M3.2809 22.1679L22.2372 29.3893L23.2094 28.1394L4.32246 19.6681C2.58653 18.9043 1.54498 21.4735 3.2809 22.1679Z" fill="white"/>
<path d="M24.9453 25.9869L25.9174 24.8065L11.6134 9.6692C10.2941 8.34989 8.34981 10.2941 9.66912 11.6134L24.9453 25.9869Z" fill="white"/>
<path d="M27.7922 22.515L28.9032 21.1263L22.1678 3.28094C21.4734 1.54501 18.9043 2.65601 19.5986 4.3225L27.7922 22.515Z" fill="white"/>
<path d="M33.9721 14.877L34.3887 1.40616C34.3887 -0.46864 31.6113 -0.46864 31.6113 1.40616L32.0973 17.1684L33.9721 14.877Z" fill="white"/>
<path d="M42.7906 12.1689L46.3319 4.32253C47.0957 2.5866 44.4571 1.54505 43.7628 3.28097L40.9853 10.6413C41.6102 10.9191 42.1657 11.3357 42.5823 11.8217C42.7212 11.9606 42.7906 12.0995 42.7906 12.1689Z" fill="white"/>
<path d="M40.4298 26.6119L56.3309 11.6134C57.6502 10.2941 55.7059 8.34989 54.3866 9.6692L41.1936 23.6955L40.4298 26.6119Z" fill="white"/>
<path d="M46.6097 28.2783L62.7191 22.1679C64.455 21.4735 63.344 18.9043 61.6775 19.5987L45.0821 27.0979C45.707 27.3757 46.1931 27.7923 46.6097 28.2783Z" fill="white"/>
<path d="M64.5939 31.6113L47.1652 32.0974C47.0263 32.4446 46.818 32.7918 46.6097 33.1389L46.0542 33.7639L64.5939 34.3888C66.4687 34.3888 66.4687 31.6113 64.5939 31.6113Z" fill="white"/>
<path d="M62.7191 43.8322L43.7628 36.6108L42.7906 37.8606L61.6775 46.4014C63.4135 47.0958 64.455 44.5266 62.7191 43.8322Z" fill="white"/>
<path d="M41.0547 40.0132L40.0826 41.1936L54.3172 56.3309C55.6365 57.6502 57.5807 55.706 56.2614 54.3867L41.0547 40.0132Z" fill="white"/>
<path d="M38.2078 43.485L37.0968 44.8738L43.8322 62.6497C44.5266 64.3856 47.0957 63.2746 46.4014 61.6081L38.2078 43.485Z" fill="white"/>
<path d="M44.596 30.1531C44.3877 29.7365 43.9711 29.4588 43.5544 29.4588H36.8885L40.6381 14.5992C40.7075 14.252 40.6381 13.9049 40.4298 13.6271C40.2215 13.3494 39.8048 13.1411 39.4577 13.1411C39.1105 13.1411 38.8327 13.2799 38.555 13.5577L21.6123 34.5971C21.3346 34.9443 21.2651 35.4304 21.4734 35.847C21.6817 36.2636 22.0984 36.5414 22.515 36.5414H29.181L25.3619 51.4009C25.2925 51.7481 25.3619 52.0953 25.5702 52.373C25.7785 52.6508 26.1952 52.8591 26.5423 52.8591C26.8895 52.8591 27.1673 52.7202 27.445 52.4425L44.4571 31.403C44.7349 31.0558 44.7349 30.5698 44.596 30.1531Z" fill="white"/>
</g>
<defs>
<clipPath id="clip0_5_113">
<rect width="66" height="66" fill="white"/>
</clipPath>
</defs>
</svg>
